HIERARCHY
ROOT RootJoint
{
    OFFSET   0.000000   0.000000   0.000000
    CHANNELS 6 Xposition Yposition Zposition Xrotation Yrotation Zrotation
    JOINT pelvis_lowerback
    {
        OFFSET   0.000000   0.093605   0.000000
        CHANNELS 3 Xrotation Yrotation Zrotation
        JOINT lowerback_torso
        {
            OFFSET   0.000000   0.100000   0.000000
            CHANNELS 3 Xrotation Yrotation Zrotation
            JOINT torso_head
            {
                OFFSET   0.000000   0.282350   0.000000
                CHANNELS 3 Xrotation Yrotation Zrotation
                End Site
                {
                    OFFSET   0.000000   0.192650   0.000000
                }
            }
            JOINT rTorso_Clavicle
            {
                OFFSET  -0.001000   0.157500   0.000000
                CHANNELS 3 Xrotation Yrotation Zrotation
                JOINT rShoulder
                {
                    OFFSET  -0.117647   0.000000   0.000000
                    CHANNELS 3 Xrotation Yrotation Zrotation
                    JOINT rElbow
                    {
                        OFFSET  -0.245000   0.000000   0.000000
                        CHANNELS 3 Xrotation Yrotation Zrotation
                        JOINT rWrist
                        {
                            OFFSET  -0.240000   0.000000   0.000000
                            CHANNELS 3 Xrotation Yrotation Zrotation
                            End Site
                            {
                                OFFSET  -0.116353  -0.002500   0.000000
                            }
                        }
                    }
                }
            }
            JOINT lTorso_Clavicle
            {
                OFFSET   0.001000   0.157500   0.000000
                CHANNELS 3 Xrotation Yrotation Zrotation
                JOINT lShoulder
                {
                    OFFSET   0.117647   0.000000   0.000000
                    CHANNELS 3 Xrotation Yrotation Zrotation
                    JOINT lElbow
                    {
                        OFFSET   0.245000   0.000000   0.000000
                        CHANNELS 3 Xrotation Yrotation Zrotation
                        JOINT lWrist
                        {
                            OFFSET   0.240000   0.000000   0.000000
                            CHANNELS 3 Xrotation Yrotation Zrotation
                            End Site
                            {
                                OFFSET   0.116353  -0.002500   0.000000
                            }
                        }
                    }
                }
            }
        }
    }
    JOINT rHip
    {
        OFFSET  -0.100000  -0.051395   0.000000
        CHANNELS 3 Xrotation Yrotation Zrotation
        JOINT rKnee
        {
            OFFSET   0.000000  -0.410000   0.000000
            CHANNELS 3 Xrotation Yrotation Zrotation
            JOINT rAnkle
            {
                OFFSET   0.000000  -0.390000   0.000000
                CHANNELS 3 Xrotation Yrotation Zrotation
                JOINT rToeJoint
                {
                    OFFSET   0.000000  -0.050000   0.130000
                    CHANNELS 3 Xrotation Yrotation Zrotation
                    End Site
                    {
                        OFFSET  -0.010000   0.002000   0.060000
                    }
                }
            }
        }
    }
    JOINT lHip
    {
        OFFSET   0.100000  -0.051395   0.000000
        CHANNELS 3 Xrotation Yrotation Zrotation
        JOINT lKnee
        {
            OFFSET   0.000000  -0.410000   0.000000
            CHANNELS 3 Xrotation Yrotation Zrotation
            JOINT lAnkle
            {
                OFFSET   0.000000  -0.390000   0.000000
                CHANNELS 3 Xrotation Yrotation Zrotation
                JOINT lToeJoint
                {
                    OFFSET   0.000000  -0.050000   0.130000
                    CHANNELS 3 Xrotation Yrotation Zrotation
                    End Site
                    {
                        OFFSET   0.010000   0.002000   0.060000
                    }
                }
            }
        }
    }
}
MOTION
Frames: 11
Frame Time:   0.008333
 -2.376719   0.925631   3.975860   0.000000   0.000000   0.000000   0.000000   0.000000   0.000000   0.000000   0.000000   0.000000   0.000000   0.000000   0.000000   0.000000   0.000000   0.000000   0.000000   0.000000   0.000000   0.000000   0.000000   0.000000   0.000000   0.000000   0.000000   0.000000   0.000000   0.000000   0.000000   0.000000   0.000000   0.000000   0.000000   0.000000   0.000000   0.000000   0.000000   0.000000   0.000000   0.000000   0.000000   0.000000   0.000000   0.000000   0.000000   0.000000   0.000000   0.000000   0.000000   0.000000   0.000000   0.000000   0.000000   0.000000   0.000000   0.000000   0.000000   0.000000   0.000000   0.000000   0.000000
 -2.376461   0.926108   3.976096  -0.357896  -0.035492  -0.001027   0.352652   0.014593   0.027861   0.099295  -0.108838   0.028656  -0.131229   0.186864   0.041768   0.143256  -0.364456   0.211136   0.768497   0.395765   2.098755   0.029433   1.414203  -0.012735   0.185721  -0.686139  -2.668978   0.093953   0.349184  -0.177029   0.543369   0.039846  -2.235838   0.033942  -1.642005   0.010888   0.150355   0.616202   2.749601   0.269961   0.267598  -0.146329   0.335016   0.000433   0.000677  -0.454785  -0.098184  -0.068026  -0.107472  -0.000201  -0.000126   0.239988  -0.051868   0.067293   0.757660  -0.000444  -0.000574  -1.043113   0.265981   0.290765   0.255477  -0.000792   0.000401
 -2.376084   0.926949   3.976400  -0.751059  -0.104432  -0.011481   0.670613   0.029534   0.081557   0.224274  -0.208994   0.078382  -0.239698   0.364534   0.090022   0.284271  -0.633903   1.104324   1.502193   0.901370   4.739691   0.068372   2.800612  -0.021733   0.406332  -0.902178  -4.650119   0.192159   0.620647  -1.048175   1.071455  -0.017037  -5.028699   0.077593  -3.238051   0.018660   0.329771   0.751672   4.782258   0.540538   0.527435  -0.396131   0.699793   0.001184   0.001137  -0.881455  -0.189201  -0.132719  -0.237456  -0.000527  -0.000216   0.551266  -0.097183   0.211527   1.589567  -0.001358  -0.001262  -2.020443   0.513854   0.568369   0.439665  -0.001289   0.000542
 -2.375634   0.927763   3.976743  -1.129021  -0.186397  -0.030325   0.947731   0.040741   0.153889   0.330225  -0.303692   0.143575  -0.344579   0.529874   0.138619   0.418043  -0.826431   2.421230   2.193101   1.482270   7.735349   0.106834   4.112783  -0.027218   0.626619  -0.935593  -5.839513   0.288580   0.816984  -2.342291   1.581756  -0.148342  -8.179008   0.120033  -4.745880   0.023676   0.509640   0.709501   6.016265   0.777467   0.765543  -0.726904   1.042803   0.002006   0.001349  -1.280326  -0.275017  -0.194485  -0.364073  -0.000873  -0.000254   0.892813  -0.136924   0.420712   2.400200  -0.002493  -0.001806  -2.932640   0.741674   0.831836   0.604799  -0.001681   0.000595
 -2.375140   0.928270   3.977115  -1.482682  -0.270455  -0.055814   1.191191   0.045362   0.239921   0.414392  -0.397332   0.221144  -0.448417   0.683913   0.185600   0.546663  -0.969414   3.982826   2.840434   2.123215  10.970202   0.140219   5.346019  -0.030174   0.840527  -0.890692  -6.434540   0.382685   0.960306  -3.874922   2.075018  -0.340828 -11.566868   0.156404  -6.162843   0.026821   0.684644   0.591326   6.661409   0.978508   0.983723  -1.120830   1.356379   0.002766   0.001403  -1.653651  -0.355870  -0.253398  -0.486842  -0.001208  -0.000264   1.249697  -0.171191   0.682803   3.172773  -0.003668  -0.002138  -3.785059   0.951106   1.081517   0.751350  -0.001964   0.000600
 -2.374622   0.928263   3.977511  -1.811545  -0.352657  -0.086223   1.407571   0.042441   0.336365   0.481437  -0.491926   0.308811  -0.549924   0.827521   0.230267   0.671494  -1.081908   5.669029   3.442977   2.812973  14.365223   0.166676   6.500501  -0.031378   1.044685  -0.814290  -6.622630   0.473831   1.067674  -5.524269   2.550461  -0.584284 -15.111251   0.184883  -7.490448   0.028731   0.852013   0.440687   6.909795   1.146893   1.184424  -1.563075   1.641751   0.003403   0.001362  -2.003027  -0.431875  -0.309484  -0.604658  -0.001506  -0.000259   1.614642  -0.200157   0.986694   3.905074  -0.004772  -0.002278  -4.581745   1.143718   1.317836   0.881527  -0.002149   0.000579
 -2.374123   0.927581   3.977925  -2.117062  -0.432703  -0.118153   1.602300   0.032106   0.436345   0.536534  -0.588100   0.395467  -0.647960   0.961432   0.275064   0.793794  -1.175867   7.404505   3.999331   3.543584  17.870228   0.185888   7.578622  -0.031407   1.237195  -0.730667  -6.538900   0.562803   1.150334  -7.241499   2.993369  -0.862863 -18.664501   0.204786  -8.732628   0.029680   1.010155   0.276481   6.852855   1.286367   1.369717  -2.040538   1.901555   0.003889   0.001263  -2.329911  -0.503231  -0.362818  -0.716885  -0.001753  -0.000245   1.982953  -0.224138   1.323035   4.597954  -0.005751  -0.002276  -5.326288   1.320897   1.541221   0.997603  -0.002255   0.000543
 -2.373805   0.925561   3.977821  -2.161949  -0.596073  -0.261236   1.663082   0.069758   0.673479   0.514487  -0.686010   0.440560  -0.874863   0.991288   0.285237   0.983113  -1.141812   8.452198   4.746396   4.379258  21.503243   0.201709   8.768294  -0.036109   1.359069  -0.706930  -5.549047   0.791412   1.221436  -8.246090   3.249118  -1.072905 -22.251504   0.218061 -10.085459   0.031028   1.113720   0.065487   5.886925   0.970185   1.358741  -2.314726   2.537605   0.005425  -0.000179  -2.583457  -0.588229  -0.160260  -0.711522  -0.001392  -0.000209   2.175947  -0.097716   1.745730   4.562727  -0.004511  -0.001818  -5.582388   1.619412   1.870661   1.115970  -0.002429   0.000712
 -2.373560   0.922393   3.977478  -2.175874  -0.708049  -0.416844   1.759966   0.092629   0.908252   0.491679  -0.780422   0.500698  -1.099107   1.012302   0.288082   1.145841  -1.061436   9.302471   5.385462   5.234641  24.815320   0.206819   9.897029  -0.039310   1.496455  -0.588275  -4.537737   0.991014   1.254180  -9.007829   3.467422  -1.302103 -25.489305   0.219231 -11.361591   0.031740   1.219655  -0.219258   4.971417   0.649267   1.333340  -2.516288   3.156154   0.006255  -0.001124  -2.815410  -0.670247   0.028895  -0.686826  -0.001075  -0.000217   2.272755   0.022201   2.140353   4.405538  -0.003271  -0.001491  -5.826145   1.898276   2.180773   1.240283  -0.002525   0.000898
 -2.373164   0.921570   3.977474  -2.282317  -0.879853  -0.083021   1.901770   0.147904   0.757575   0.514966  -0.842472   0.404471  -1.298645   1.032149   0.274563   1.290697  -0.952487  10.255990   5.926477   6.090516  27.948540   0.207012  10.955630  -0.040645   1.635648  -0.444239  -3.682125   1.170807   1.275804  -9.772550   3.656155  -1.526355 -28.470389   0.214850 -12.544931   0.031324   1.322287  -0.475341   4.296498   0.491154   1.314555  -3.125186   3.750308   0.006369  -0.002087  -3.022942  -0.749478   0.202948  -0.599040  -0.000778  -0.000388   2.257949   0.227369   1.755948   4.630066  -0.002531  -0.001089  -5.524815   2.225859   2.335179   1.403951  -0.002189   0.001245
 -2.373184   0.921416   3.977627  -2.366309  -1.116406  -0.053891   2.017142   0.237249   0.895950   0.532457  -0.865991   0.402892  -1.482812   1.051790   0.256720   1.416982  -0.832547  11.055071   6.384772   6.927106  30.836325   0.201938  11.951264  -0.040477   1.770666  -0.263546  -2.840300   1.346036   1.305367 -10.454011   3.828033  -1.741423 -31.268169   0.205485 -13.652986   0.030244   1.417639  -0.731110   3.622801   0.260441   1.266838  -3.193832   4.312888   0.005185  -0.003218  -3.140473  -0.849235   0.418996  -0.524957  -0.000733  -0.000571   2.324017   0.364748   1.698415   4.750099  -0.002017  -0.000969  -5.539210   2.478860   2.574835   1.553432  -0.002036   0.001208
